<?xml version="1.0" encoding="UTF-8" standalone="no"?>
<svg
   xmlns:osb="http://www.openswatchbook.org/uri/2009/osb"
   xmlns:dc="http://purl.org/dc/elements/1.1/"
   xmlns:cc="http://creativecommons.org/ns#"
   xmlns:rdf="http://www.w3.org/1999/02/22-rdf-syntax-ns#"
   xmlns:svg="http://www.w3.org/2000/svg"
   xmlns="http://www.w3.org/2000/svg"
   xmlns:sodipodi="http://sodipodi.sourceforge.net/DTD/sodipodi-0.dtd"
   xmlns:inkscape="http://www.inkscape.org/namespaces/inkscape"
   width="175mm"
   height="174mm"
   viewBox="0 0 175 174"
   version="1.1"
   id="svg8"
   inkscape:version="1.0.1 (3bc2e813f5, 2020-09-07)"
   sodipodi:docname="portfolioappicon.svg">
  <defs
     id="defs2">
    <linearGradient
       id="linearGradient2827"
       osb:paint="solid">
      <stop
         style="stop-color:#1976d2;stop-opacity:1;"
         offset="0"
         id="stop2825" />
    </linearGradient>
    <inkscape:path-effect
       effect="bspline"
       id="path-effect30"
       is_visible="true"
       lpeversion="1"
       weight="33.333333"
       steps="2"
       helper_size="0"
       apply_no_weight="true"
       apply_with_weight="true"
       only_selected="false" />
    <inkscape:path-effect
       effect="bspline"
       id="path-effect14"
       is_visible="true"
       lpeversion="1"
       weight="33.333333"
       steps="2"
       helper_size="0"
       apply_no_weight="true"
       apply_with_weight="true"
       only_selected="false" />
  </defs>
  <sodipodi:namedview
     id="base"
     pagecolor="#ffffff"
     bordercolor="#666666"
     borderopacity="1.0"
     inkscape:pageopacity="0.0"
     inkscape:pageshadow="2"
     inkscape:zoom="0.7"
     inkscape:cx="20.104431"
     inkscape:cy="569.2021"
     inkscape:document-units="mm"
     inkscape:current-layer="g894"
     inkscape:document-rotation="0"
     showgrid="false"
     inkscape:window-width="1920"
     inkscape:window-height="1017"
     inkscape:window-x="-8"
     inkscape:window-y="-8"
     inkscape:window-maximized="1"
     scale-x="1" />
  <metadata
     id="metadata5">
    <rdf:RDF>
      <cc:Work
         rdf:about="">
        <dc:format>image/svg+xml</dc:format>
        <dc:type
           rdf:resource="http://purl.org/dc/dcmitype/StillImage" />
        <dc:title></dc:title>
      </cc:Work>
    </rdf:RDF>
  </metadata>
  <g
     inkscape:label="Layer 1"
     inkscape:groupmode="layer"
     id="layer1">
    <path
       style="fill:#000000;stroke-width:0.126269"
       d=""
       id="path36"
       transform="scale(0.26458333)" />
    <path
       style="fill:#000000;stroke-width:0.0111607"
       d=""
       id="path46"
       transform="scale(0.26458333)" />
    <path
       style="fill:#000000;stroke-width:0.0446429"
       d=""
       id="path52"
       transform="scale(0.26458333)" />
    <path
       style="fill:#000000;stroke-width:0.0446429"
       d=""
       id="path54"
       transform="scale(0.26458333)" />
    <path
       style="fill:#000000;stroke-width:0.0446429"
       d=""
       id="path66"
       transform="scale(0.26458333)" />
    <path
       style="fill:#000000;stroke-width:0.0446429"
       d=""
       id="path68"
       transform="scale(0.26458333)" />
    <g
       id="g894">
      <rect
         style="fill:#000000;stroke-width:0.264587"
         id="rect10"
         width="61.23214"
         height="71.059502"
         x="52.160713"
         y="68.035698" />
      <path
         style="fill:none;stroke:#000000;stroke-width:0.264587px;stroke-linecap:butt;stroke-linejoin:miter;stroke-opacity:1"
         d="m 114.14882,85.42262 c 9.07444,1.512406 18.14584,3.024306 23.31025,7.813248 5.16441,4.788942 6.42434,12.852422 6.42388,17.890952 -4.5e-4,5.03853 -1.26037,7.05442 -1.89012,8.44129 -0.62974,1.38686 -0.62974,2.14282 -0.88041,2.51948 -0.25066,0.37666 -0.75461,0.37666 -1.13418,0.75544 -0.37956,0.37879 -0.63154,1.13474 -3.78016,2.26764 -3.14862,1.13291 -9.19622,2.64479 -13.47956,3.40096 -4.28334,0.75618 -6.80319,0.75618 -8.06443,2.39542 -1.26124,1.63924 -1.26125,4.91507 -1.26125,6.55163 0,1.63656 0,1.63656 4.28475,0.75441 4.28475,-0.88214 12.8522,-2.64601 18.14358,-3.90599 5.29139,-1.25999 7.30726,-2.01596 8.44033,-3.40046 1.13306,-1.38451 1.38504,-3.40038 2.14088,-5.66886 0.75584,-2.26848 2.01577,-4.78832 2.64598,-6.67738 0.63022,-1.88905 0.63022,-3.14904 0.88209,-6.42497 0.25187,-3.27592 0.75583,-8.56755 -1.76248,-13.607215 -2.51832,-5.039662 -8.06198,-9.827366 -12.47153,-12.725916 -4.40954,-2.89855 -7.68534,-3.906491 -11.08724,-4.662719 -3.40189,-0.756229 -6.92966,-1.260195 -8.82092,-3.400866 -1.89127,-2.140671 -2.14326,-5.920432 -2.39544,-9.703003"
         id="path12"
         inkscape:path-effect="#path-effect14"
         inkscape:original-d="m 114.14882,85.42262 c 9.07408,1.514552 18.14548,3.026452 27.21427,4.535712 1.26257,8.066138 2.52249,16.129618 3.77977,24.190428 -1.25728,2.01851 -2.5172,4.03441 -3.77977,6.04768 0.003,0.75853 0.003,1.51449 0,2.26781 -0.50133,0.003 -1.00528,0.003 -1.5119,0 -0.24935,0.75862 -0.50132,1.51458 -0.75594,2.2679 -6.045,1.51458 -12.09261,3.02644 -18.14289,4.53566 -2.51718,0.003 -5.03703,0.003 -7.55951,0 0.003,3.27848 0.003,6.55431 -10e-6,9.82742 0.003,0.003 0.003,0.003 0,1e-5 8.57013,-1.76124 17.13757,-3.52515 25.70241,-5.29162 2.0185,-0.75333 4.03438,-1.50929 6.04761,-2.26791 0.25462,-2.01321 0.50661,-4.02908 0.75595,-6.04759 1.26258,-2.51724 2.5225,-5.03708 3.77977,-7.55952 0.003,-1.25725 0.003,-2.51724 0,-3.77984 0.5066,-5.28898 1.01056,-10.58061 1.5119,-15.874947 -5.54101,-4.785053 -11.08467,-9.572755 -16.63097,-14.363103 -3.27313,-1.005285 -6.54893,-2.013221 -9.82736,-3.023811 -3.52516,-0.501319 -7.05293,-1.005285 -10.58333,-1.511901 -0.24935,-3.777119 -0.50136,-7.556879 -0.75598,-11.339287" />
      <path
         style="fill:none;stroke-width:0.755952"
         d="m 113.98131,135.28584 c 0.57462,-4.28398 1.43913,-5.00237 7.19294,-5.97719 7.1373,-1.20908 16.08887,-3.70022 18.17332,-5.05746 2.99776,-1.95202 4.62615,-6.71943 4.64474,-13.59817 0.0379,-14.119712 -6.07545,-21.088929 -21.15005,-24.109932 -9.99281,-2.002597 -9.07144,-1.391734 -9.07144,-6.014206 v -4.108973 l 1.7009,1.694514 c 1.04917,1.045222 4.26259,2.369925 8.38642,3.457217 10.77387,2.840667 21.02745,10.622714 24.29249,18.43708 1.94125,4.64607 1.54491,15.35481 -0.79589,21.50273 -3.73514,9.80994 -3.70965,9.77299 -7.64357,11.07259 -3.08117,1.01787 -24.20125,5.75523 -25.65786,5.75523 -0.26486,0 -0.29726,-1.37405 -0.0716,-3.05343 z"
         id="path16" />
      <path
         style="fill:none;stroke-width:0.755952"
         d="m 113.98131,135.28584 c 0.57462,-4.28398 1.43913,-5.00237 7.19294,-5.97719 7.1373,-1.20908 16.08887,-3.70022 18.17332,-5.05746 2.99776,-1.95202 4.62615,-6.71943 4.64474,-13.59817 0.0379,-14.119712 -6.07545,-21.088929 -21.15005,-24.109932 -9.99281,-2.002597 -9.07144,-1.391734 -9.07144,-6.014206 v -4.108973 l 1.7009,1.694514 c 1.04917,1.045222 4.26259,2.369925 8.38642,3.457217 10.77387,2.840667 21.02745,10.622714 24.29249,18.43708 1.94125,4.64607 1.54491,15.35481 -0.79589,21.50273 -3.73514,9.80994 -3.70965,9.77299 -7.64357,11.07259 -3.08117,1.01787 -24.20125,5.75523 -25.65786,5.75523 -0.26486,0 -0.29726,-1.37405 -0.0716,-3.05343 z"
         id="path18" />
      <path
         style="fill:none;stroke-width:0.755952"
         d="m 113.98131,135.28584 c 0.57462,-4.28398 1.43913,-5.00237 7.19294,-5.97719 7.1373,-1.20908 16.08887,-3.70022 18.17332,-5.05746 2.99776,-1.95202 4.62615,-6.71943 4.64474,-13.59817 0.0379,-14.119712 -6.07545,-21.088929 -21.15005,-24.109932 -9.99281,-2.002597 -9.07144,-1.391734 -9.07144,-6.014206 v -4.108973 l 1.7009,1.694514 c 1.04917,1.045222 4.26259,2.369925 8.38642,3.457217 10.77387,2.840667 21.02745,10.622714 24.29249,18.43708 1.94125,4.64607 1.54491,15.35481 -0.79589,21.50273 -3.73514,9.80994 -3.70965,9.77299 -7.64357,11.07259 -3.08117,1.01787 -24.20125,5.75523 -25.65786,5.75523 -0.26486,0 -0.29726,-1.37405 -0.0716,-3.05343 z"
         id="path20" />
      <path
         style="fill:none;stroke-width:0.755952"
         d="m 113.98131,135.28584 c 0.57462,-4.28398 1.43913,-5.00237 7.19294,-5.97719 7.1373,-1.20908 16.08887,-3.70022 18.17332,-5.05746 2.99776,-1.95202 4.62615,-6.71943 4.64474,-13.59817 0.0379,-14.119712 -6.07545,-21.088929 -21.15005,-24.109932 -9.99281,-2.002597 -9.07144,-1.391734 -9.07144,-6.014206 v -4.108973 l 1.7009,1.694514 c 1.04917,1.045222 4.26259,2.369925 8.38642,3.457217 10.77387,2.840667 21.02745,10.622714 24.29249,18.43708 1.94125,4.64607 1.54491,15.35481 -0.79589,21.50273 -3.73514,9.80994 -3.70965,9.77299 -7.64357,11.07259 -3.08117,1.01787 -24.20125,5.75523 -25.65786,5.75523 -0.26486,0 -0.29726,-1.37405 -0.0716,-3.05343 z"
         id="path22" />
      <path
         style="fill:none;stroke-width:0.755952"
         d="m 113.98131,135.28584 c 0.57462,-4.28398 1.43913,-5.00237 7.19294,-5.97719 7.1373,-1.20908 16.08887,-3.70022 18.17332,-5.05746 2.99776,-1.95202 4.62615,-6.71943 4.64474,-13.59817 0.0379,-14.119712 -6.07545,-21.088929 -21.15005,-24.109932 -9.99281,-2.002597 -9.07144,-1.391734 -9.07144,-6.014206 v -4.108973 l 1.7009,1.694514 c 1.04917,1.045222 4.26259,2.369925 8.38642,3.457217 10.77387,2.840667 21.02745,10.622714 24.29249,18.43708 1.94125,4.64607 1.54491,15.35481 -0.79589,21.50273 -3.73514,9.80994 -3.70965,9.77299 -7.64357,11.07259 -3.08117,1.01787 -24.20125,5.75523 -25.65786,5.75523 -0.26486,0 -0.29726,-1.37405 -0.0716,-3.05343 z"
         id="path24" />
      <path
         style="fill:none;stroke-width:0.755952"
         d="m 113.98131,135.28584 c 0.57462,-4.28398 1.43913,-5.00237 7.19294,-5.97719 7.1373,-1.20908 16.08887,-3.70022 18.17332,-5.05746 2.99776,-1.95202 4.62615,-6.71943 4.64474,-13.59817 0.0379,-14.119712 -6.07545,-21.088929 -21.15005,-24.109932 -9.99281,-2.002597 -9.07144,-1.391734 -9.07144,-6.014206 v -4.108973 l 1.7009,1.694514 c 1.04917,1.045222 4.26259,2.369925 8.38642,3.457217 10.77387,2.840667 21.02745,10.622714 24.29249,18.43708 1.94125,4.64607 1.54491,15.35481 -0.79589,21.50273 -3.73514,9.80994 -3.70965,9.77299 -7.64357,11.07259 -3.08117,1.01787 -24.20125,5.75523 -25.65786,5.75523 -0.26486,0 -0.29726,-1.37405 -0.0716,-3.05343 z"
         id="path26" />
      <path
         style="fill:none;stroke:#000000;stroke-width:0.264587px;stroke-linecap:butt;stroke-linejoin:miter;stroke-opacity:1"
         d="m 114.14882,85.42262 c 0,0 -1.60082,-0.120366 -1.60082,-0.120366"
         id="path28"
         inkscape:path-effect="#path-effect30"
         inkscape:original-d="M 114.14882,85.42262 112.548,85.302254" />
      <path
         style="fill:none;stroke-width:0.0668172"
         d="m 113.85634,138.58146 c -0.27387,-0.11741 -0.29946,-0.32701 -0.26108,-2.1398 0.0385,-1.83197 0.13762,-2.70872 0.41809,-3.70842 0.52583,-1.87426 1.34546,-2.63216 3.3926,-3.137 0.65289,-0.16106 1.38248,-0.28933 3.81797,-0.67116 5.46474,-0.8569 13.16541,-2.81565 16.21373,-4.12419 1.09354,-0.46945 1.78623,-0.90783 2.36151,-1.49449 0.28765,-0.2934 0.63229,-0.56331 0.89517,-0.70125 0.4741,-0.24879 0.62041,-0.43624 0.7778,-0.99699 0.26344,-0.93834 0.46605,-1.48536 0.92241,-2.4906 0.7292,-1.60618 1.03036,-2.48004 1.27151,-3.69001 0.44776,-2.24631 0.48865,-5.48407 0.10721,-8.48577 -0.63042,-4.96115 -2.24014,-9.165593 -4.65591,-12.160779 -3.43013,-4.252872 -8.85461,-6.628788 -19.66409,-8.612807 -1.84771,-0.339138 -5.04902,-0.874236 -5.62935,-0.940942 l -0.38419,-0.04417 V 79.80909 74.435097 h 0.28539 0.28539 l 0.18712,0.618058 c 0.60418,1.995454 1.63404,3.315369 3.27114,4.192364 1.22745,0.657543 2.55272,1.069939 5.48784,1.707688 2.44848,0.53202 3.8054,0.870826 4.94906,1.235739 3.35433,1.070273 6.64756,2.857413 10.18011,5.524455 5.03396,3.800528 8.72299,8.005271 10.33372,11.778216 1.13172,2.651033 1.65341,5.763753 1.54531,9.220763 -0.0427,1.37766 -0.38234,6.14503 -0.5132,7.21176 -0.19903,1.62201 -0.4619,2.45668 -1.74741,5.54846 -1.15845,2.78607 -1.4141,3.4907 -1.99798,5.50693 -0.55727,1.9243 -0.78601,2.55272 -1.16385,3.19755 -0.99378,1.69589 -2.61985,2.45909 -8.08406,3.79444 -3.06622,0.74929 -7.72311,1.77077 -14.76664,3.23889 -6.5729,1.37 -7.47107,1.52711 -7.83532,1.37105 z"
         id="path32" />
      <path
         style="fill:#000000;stroke-width:0.0668172"
         d="m 113.85634,138.58146 c -0.27387,-0.11741 -0.29946,-0.32701 -0.26108,-2.1398 0.0385,-1.83197 0.13762,-2.70872 0.41809,-3.70842 0.52583,-1.87426 1.34546,-2.63216 3.3926,-3.137 0.65289,-0.16106 1.38248,-0.28933 3.81797,-0.67116 5.46474,-0.8569 13.16541,-2.81565 16.21373,-4.12419 1.09354,-0.46945 1.78623,-0.90783 2.36151,-1.49449 0.28765,-0.2934 0.63229,-0.56331 0.89517,-0.70125 0.4741,-0.24879 0.62041,-0.43624 0.7778,-0.99699 0.26344,-0.93834 0.46605,-1.48536 0.92241,-2.4906 0.7292,-1.60618 1.03036,-2.48004 1.27151,-3.69001 0.44776,-2.24631 0.48865,-5.48407 0.10721,-8.48577 -0.63042,-4.96115 -2.24014,-9.165593 -4.65591,-12.160779 -3.43013,-4.252872 -8.85461,-6.628788 -19.66409,-8.612807 -1.84771,-0.339138 -5.04902,-0.874236 -5.62935,-0.940942 l -0.38419,-0.04417 V 79.80909 74.435097 h 0.28539 0.28539 l 0.18712,0.618058 c 0.60418,1.995454 1.63404,3.315369 3.27114,4.192364 1.22745,0.657543 2.55272,1.069939 5.48784,1.707688 2.44848,0.53202 3.8054,0.870826 4.94906,1.235739 3.35433,1.070273 6.64756,2.857413 10.18011,5.524455 5.03396,3.800528 8.72299,8.005271 10.33372,11.778216 1.13172,2.651033 1.65341,5.763753 1.54531,9.220763 -0.0427,1.37766 -0.38234,6.14503 -0.5132,7.21176 -0.19903,1.62201 -0.4619,2.45668 -1.74741,5.54846 -1.15845,2.78607 -1.4141,3.4907 -1.99798,5.50693 -0.55727,1.9243 -0.78601,2.55272 -1.16385,3.19755 -0.99378,1.69589 -2.61985,2.45909 -8.08406,3.79444 -3.06622,0.74929 -7.72311,1.77077 -14.76664,3.23889 -6.5729,1.37 -7.47107,1.52711 -7.83532,1.37105 z"
         id="path34" />
      <path
         style="fill:#000000;stroke-width:0.0334087"
         d="m 113.41573,72.444752 c 0.002,-1.079516 0.009,-1.932693 0.0143,-1.895942 0.005,0.03676 0.027,0.25474 0.048,0.484426 0.0865,0.941169 0.26745,2.143696 0.43534,2.899519 0.0538,0.244186 0.0992,0.450903 0.0992,0.45937 0,0.0085 -0.13531,0.0154 -0.30068,0.0154 h -0.30068 z"
         id="path38" />
      <path
         style="fill:#000000;stroke-width:0.0334087"
         d="m 142.481,101.09647 c -0.55319,-1.699926 -1.4298,-3.541364 -2.36751,-4.973309 -0.65615,-1.00197 -1.30495,-1.800058 -2.14584,-2.639526 -3.26367,-3.258305 -8.19911,-5.308076 -16.92257,-7.028226 -2.1843,-0.430719 -6.06523,-1.094993 -7.44178,-1.273775 l -0.15868,-0.02061 v -5.360048 -5.36005 l 0.27559,5.29e-4 0.27564,5.3e-4 0.14454,0.475479 c 0.20141,0.662329 0.34839,1.045383 0.57983,1.511152 0.95297,1.917702 2.45718,3.011317 5.23906,3.80905 0.82798,0.237422 1.54555,0.410845 3.52385,0.851622 2.97957,0.663881 4.06423,0.960988 5.61343,1.537656 3.50737,1.305552 7.07289,3.465032 10.7743,6.525592 0.84813,0.701262 2.07606,1.801694 2.54753,2.28298 l 0.19221,0.19622 -0.008,4.905456 -0.008,4.905468 z"
         id="path40" />
      <path
         style="fill:#000000;stroke-width:0.0334087"
         d="m 142.4978,101.14729 c -0.28724,-0.88925 -0.74468,-2.008681 -1.19501,-2.924229 -2.02465,-4.11634 -4.89661,-6.758202 -9.46673,-8.708246 -3.12347,-1.332769 -7.18383,-2.424651 -12.76211,-3.431877 -1.86625,-0.336972 -4.48852,-0.7684 -5.48735,-0.902807 l -0.14198,-0.0191 V 79.80098 74.44093 h 0.28129 0.28134 l 0.0229,0.108579 c 0.0702,0.332976 0.44887,1.371147 0.65378,1.795407 0.80344,1.663428 1.9703,2.680022 3.96972,3.458541 0.91203,0.355107 1.93348,0.633381 4.1619,1.133804 2.9843,0.67019 3.88847,0.89508 4.97788,1.23817 3.52439,1.10996 6.99258,3.017498 10.74091,5.907601 1.33326,1.028017 3.15054,2.597408 3.90056,3.368547 l 0.1755,0.180452 -0.008,4.906067 -0.008,4.906092 z"
         id="path42" />
      <path
         style="fill:#000000;stroke-width:0.0334087"
         d="m 142.51523,101.19842 c -0.0428,-0.13628 -0.17581,-0.50904 -0.29477,-0.82853 -1.05224,-2.825023 -2.4322,-5.062101 -4.2372,-6.869044 -3.38585,-3.389487 -8.64553,-5.503033 -18.07409,-7.262834 -2.15786,-0.402757 -5.05127,-0.886885 -6.32257,-1.057889 l -0.14198,-0.0191 v -5.360047 -5.36005 h 0.27724 0.27724 l 0.10965,0.375849 c 0.62729,2.150792 1.62549,3.483896 3.30349,4.411916 1.20801,0.668095 2.42449,1.045134 5.78771,1.793924 1.86222,0.414608 3.0862,0.711478 3.93726,0.954949 3.38188,0.967506 6.73177,2.681721 10.26141,5.251019 1.66658,1.213118 3.58364,2.807461 4.76975,3.966803 l 0.44436,0.434312 -0.01,4.908245 -0.01,4.908257 z"
         id="path44" />
      <path
         style="fill:#000000;stroke-width:0.00295293"
         d="m 116.13465,85.58929 c -0.10837,-0.01852 -0.63995,-0.106259 -0.88587,-0.146189 -0.63709,-0.103462 -1.105,-0.175691 -1.33621,-0.206253 -0.0445,-0.0059 -0.46352,-0.05483 -0.46945,-0.05483 -7.8e-4,0 -0.002,-0.382708 -0.002,-0.850451 v -0.85045 h 1.39082 1.39083 v 1.06159 c 0,0.583862 -9.9e-4,1.061434 -0.002,1.061264 -0.001,-1.69e-4 -0.0398,-0.0068 -0.0861,-0.01468 z"
         id="path48" />
      <path
         style="fill:#000000;stroke-width:0.0118121"
         d="m 113.40575,71.821073 c -8e-4,-1.480996 7.8e-4,-1.641762 0.0153,-1.494188 0.009,0.09097 0.0129,0.181312 0.009,0.200801 -0.004,0.0195 -0.011,0.691872 -0.0153,1.494187 l -0.008,1.458748 z"
         id="path50" />
      <path
         style="fill:#000000;stroke-width:0.00208808"
         d="m 114.74161,85.386437 c -0.31408,-0.0526 -0.57126,-0.09543 -0.57153,-0.09519 -2.6e-4,2.4e-4 -0.004,0.02172 -0.008,0.04773 -0.004,0.02602 -0.008,0.04699 -0.008,0.04663 -2.7e-4,-2.65e-4 7.8e-4,-0.02148 0.003,-0.04694 0.002,-0.02546 0.003,-0.04695 0.002,-0.04775 -9.9e-4,-0.0011 -0.65786,-0.05176 -0.76178,-0.05887 -8e-4,-6e-5 -0.002,-0.445025 -0.002,-0.988801 v -0.988674 h 0.0217 0.0217 v 0.964495 0.964488 l 0.008,0.0013 c 0.004,7.91e-4 0.0988,0.01159 0.20934,0.02429 0.20827,0.02388 0.26891,0.03151 0.40401,0.05093 0.24186,0.03477 0.67364,0.102133 1.14218,0.178198 l 0.11273,0.01831 5.4e-4,0.01302 c 2.8e-4,0.0072 -1.3e-4,0.01291 -9.9e-4,0.01278 -7.8e-4,-1.3e-4 -0.25862,-0.04328 -0.57274,-0.09587 z"
         id="path56" />
      <path
         style="fill:#000000;stroke-width:0.0118121"
         d="m 121.24319,86.504551 c -2.03759,-0.408301 -6.35979,-1.15371 -7.45372,-1.285469 -0.13616,-0.0164 -0.27013,-0.03283 -0.29775,-0.0365 l -0.0498,-0.0067 v -4.94246 -4.942497 h 0.41181 0.41176 l 0.056,0.16241 c 0.5371,1.543243 1.37121,2.663362 2.57484,3.457767 0.21916,0.14464 0.35834,0.226921 0.61421,0.363095 0.93703,0.498665 1.9424,0.850049 3.61735,1.264276 l 0.39276,0.09715 v 2.961871 c 0,1.629022 -0.004,2.961242 -0.009,2.960495 -0.005,-7.86e-4 -0.12578,-0.0248 -0.2687,-0.05344 z"
         id="path58" />
      <path
         style="fill:#000000;stroke-width:0.0118121"
         d="m 121.20773,86.498851 c -1.71358,-0.35153 -6.25285,-1.135257 -7.38232,-1.274603 -0.15593,-0.01924 -0.30607,-0.03799 -0.33369,-0.04166 l -0.0498,-0.0067 v -4.942459 -4.942497 h 0.41248 0.41245 l 0.02,0.06202 c 0.011,0.03412 0.0541,0.155029 0.0971,0.268718 0.63074,1.703007 1.61083,2.846875 3.13093,3.654154 0.93475,0.496405 1.94621,0.849195 3.63149,1.266644 l 0.37502,0.09292 v 2.961997 c 0,2.362335 -0.003,2.961745 -0.0147,2.960813 -0.008,-5.27e-4 -0.14234,-0.02734 -0.29828,-0.05933 z"
         id="path60" />
      <path
         style="fill:#000000;stroke-width:0.0118121"
         d="m 113.3878,80.257771 5.4e-4,-4.972744 0.006,4.736515 c 0.003,2.605084 0.003,4.842817 -5.2e-4,4.972744 -0.004,0.129928 -0.006,-2.001501 -0.006,-4.736515 z"
         id="path62" />
      <path
         style="fill:#000000;stroke-width:0.0118121"
         d="m 113.40214,80.886748 c -0.004,-1.300917 -0.008,-3.092171 -0.008,-3.980562 0,-1.427908 0.002,-1.615252 0.0176,-1.615252 0.0156,0 0.0175,0.450155 0.0175,3.980562 0,2.18931 -0.004,3.980564 -0.01,3.980564 -0.005,0 -0.0133,-1.064394 -0.0175,-2.365312 z"
         id="path64" />
      <path
         style="fill:#000000;stroke-width:0.00147644"
         d="m 113.39756,82.722186 c 0,-0.292127 -5.2e-4,-0.745992 -9.9e-4,-1.00856 l -9.9e-4,-0.477402 0.004,5.29e-4 0.004,5.29e-4 9.9e-4,0.237714 c 0.003,0.655833 0.008,1.36265 0.0115,1.624854 0.002,0.108639 0.003,0.152078 0.004,0.152078 0.002,0 0.003,-0.06858 0.004,-0.300466 0.002,-0.302604 0.004,-1.122202 0.004,-1.454695 v -0.260223 h 0.005 0.005 v 1.008424 1.008437 h -0.0205 -0.0205 z"
         id="path70" />
      <path
         style="fill:#000000;stroke-width:0.264587"
         id="path72"
         d="m 71.509392,63.821683 c 0.275643,-1.057922 0.320222,-2.139071 0.259532,-3.225041 -0.06865,-1.276385 -0.320355,-2.52312 -0.815608,-3.700322 -0.490273,-1.085088 -1.121844,-2.096938 -1.674797,-3.149841 -0.658357,-1.125418 -1.220454,-2.301012 -1.774679,-3.479565 -0.534409,-1.028551 -0.99154,-2.094192 -1.445314,-3.160222 -0.328853,-0.826437 -0.816307,-1.581068 -1.127193,-2.414752 -0.215907,-0.578987 -0.269983,-0.868211 -0.417686,-1.463522 -0.255369,-1.136325 -0.325675,-2.299382 -0.347921,-3.460102 -0.0019,-1.069704 0.227655,-1.861523 0.643299,-2.82819 0.48475,-1.050227 1.032572,-2.080536 1.630958,-3.072399 0.709323,-1.235194 1.472722,-2.437276 2.21517,-3.65233 0.478743,-0.719006 1.056062,-1.390576 1.734689,-1.930779 0.339692,-0.270402 0.779888,-0.523187 1.148252,-0.748194 -0.886197,0.51958 -1.784535,1.018989 -2.658589,1.558748 -0.21338,0.131767 0.449383,-0.222785 0.674427,-0.33346 0.693653,-0.341138 0.651634,-0.310917 1.319816,-0.663012 1.584625,-0.835017 2.463688,-1.429015 4.412471,-2.585614 1.093409,-0.795634 1.607805,-1.563203 2.101343,-2.804124 0.345539,-0.903047 0.412618,-1.860285 0.430128,-2.816488 0.01691,-0.885661 -0.136392,-1.763448 -0.203104,-2.645446 -0.0035,-0.835826 -0.04375,-1.110706 -0.508816,-1.800989 0,0 -3.394637,1.994189 -3.394637,1.994189 v 0 c 0.422634,0.610031 0.403209,0.861663 0.433224,1.609696 0.07188,0.867412 0.211239,1.733147 0.186808,2.604946 -0.04207,0.91141 -0.115897,1.823033 -0.468906,2.676928 -0.508199,1.141252 -1.142438,1.892403 -2.181604,2.595827 0.931869,-0.523714 1.865043,-1.045107 2.795603,-1.57114 0.198942,-0.112459 -0.399959,0.221209 -0.600714,0.330398 -0.211326,0.114938 -0.421798,0.231546 -0.635514,0.341974 -1.804684,0.932489 -3.66658,1.529262 -5.294413,2.904563 -1.133171,0.751694 -2.122297,1.650768 -2.814603,2.839103 -0.752404,1.212867 -1.49395,2.432505 -2.21997,3.661327 -0.594883,1.018907 -1.178873,2.054551 -1.644914,3.138909 -0.384243,0.954134 -0.587832,1.941553 -0.569239,2.97563 0.04542,1.181092 0.148124,2.359162 0.438999,3.5093 0.139205,0.526053 0.253558,1.003221 0.438951,1.516864 0.302019,0.836756 0.765286,1.603749 1.116668,2.419066 0.442444,1.07966 0.873403,2.166608 1.435857,3.19109 0.587398,1.165512 1.148343,2.344489 1.787388,3.483637 0.537036,1.04837 1.173741,2.04448 1.652284,3.122243 0.450747,1.138489 0.730902,2.333864 0.787454,3.561007 0.01492,1.067197 -0.07259,2.14194 -0.433514,3.155344 0,0 3.588414,-1.685257 3.588414,-1.685257 z" />
      <path
         style="fill:#000000;stroke-width:0.264587"
         id="path74"
         d="m 100.04439,63.12741 c -1.197949,-1.097841 -2.239771,-2.361064 -3.27366,-3.6117 -1.11158,-1.400047 -2.200593,-2.828613 -3.094363,-4.379434 -0.418708,-0.805712 -0.91877,-1.568063 -1.217839,-2.431236 -0.17393,-0.501981 -0.198219,-0.699561 -0.306369,-1.216475 -0.219822,-1.361599 -0.249981,-2.740043 -0.10124,-4.108819 0.218839,-1.639844 0.76551,-2.661313 1.767301,-3.947389 1.1878,-1.378647 2.630719,-2.511966 3.980131,-3.727234 1.305675,-1.165642 2.509209,-2.468127 3.441359,-3.957016 0.19966,-0.318924 0.36815,-0.656328 0.55222,-0.984492 1.14774,-2.174671 1.65668,-4.552065 1.94301,-6.971093 0.094,-1.306741 0.27184,-2.622656 0.20843,-3.935922 -0.031,-0.6473 -0.0947,-0.921474 -0.1989,-1.566102 -0.36624,-1.81061 -1.22767,-3.451062 -2.06759,-5.076958 -0.11993,-0.196825 -0.23984,-0.393652 -0.35977,-0.590478 0,0 -3.334691,1.942799 -3.334691,1.942799 v 0 c 0.121479,0.18575 0.242972,0.371501 0.364457,0.557252 0.878867,1.564474 1.705224,3.167459 2.009474,4.958047 0.24922,1.786629 0.23556,3.576289 0.0217,5.370023 -0.30707,2.384701 -0.827797,4.726311 -2.023539,6.842941 -0.188134,0.317115 -0.361942,0.643181 -0.564392,0.951348 -0.965829,1.470175 -2.200568,2.737769 -3.514881,3.896474 -1.366598,1.220173 -2.818439,2.375358 -3.974468,3.805169 -0.96787,1.326715 -1.52102,2.496013 -1.702109,4.147198 -0.136921,1.40773 -0.06879,2.825906 0.145019,4.224235 0.11848,0.520967 0.15792,0.767532 0.340921,1.273802 0.316218,0.874765 0.824529,1.652944 1.2717,2.462331 0.919109,1.562061 2.047508,2.986523 3.16765,4.407886 1.032991,1.25687 2.07053,2.511391 3.144461,3.733505 0,0 3.375758,-2.068662 3.375758,-2.068662 z" />
      <path
         style="fill:#000000;stroke-width:0.264587"
         id="path76"
         d="m 87.046179,62.683075 c -0.56853,-2.165955 -0.874571,-4.38754 -1.32218,-6.579718 -0.49197,-1.768965 -0.77933,-3.568135 -0.918799,-5.39578 -0.127931,-1.595424 -0.06939,-3.192154 0.193168,-4.769677 0.22122,-1.089837 0.438571,-2.180158 0.510421,-3.291138 0.08123,-0.715062 -0.01918,-1.443144 0.04035,-2.157767 0.04922,-0.589622 0.131541,-0.755156 0.3016,-1.329928 0.430139,-1.419694 1.53176,-2.424014 2.52825,-3.460862 0.98583,-1.134213 2.238741,-2.033831 3.11628,-3.263871 0.15498,-0.217235 0.27981,-0.454471 0.419721,-0.681709 0.788921,-1.502975 0.98149,-3.182846 1.017728,-4.854068 -0.02295,-1.085169 0.02601,-2.191327 -0.29421,-3.243186 -0.17709,-0.581815 -0.529909,-1.346508 -0.771579,-1.900736 -0.7181,-1.467774 -1.609209,-2.840577 -2.385179,-4.275709 -0.09289,-0.183818 -0.185871,-0.367631 -0.278801,-0.551448 0,0 -3.362209,1.919341 -3.362209,1.919341 v 0 c 0.09714,0.185976 0.194259,0.371954 0.291389,0.557929 0.7975,1.409019 1.71222,2.751754 2.4363,4.203305 0.28819,0.676738 0.514731,1.138321 0.701509,1.850242 0.27049,1.030966 0.226221,2.110383 0.252842,3.164881 -0.06245,1.622319 -0.282051,3.248601 -1.120082,4.672994 -0.142268,0.211302 -0.27253,0.431209 -0.426817,0.63391 -0.912452,1.198761 -2.139353,2.119345 -3.136612,3.241524 -1.03699,1.06839 -2.066367,2.159279 -2.462231,3.640336 -0.168468,0.644528 -0.234873,0.78031 -0.288494,1.436515 -0.058,0.710491 0.0161,1.432801 -0.07044,2.142906 -0.09919,1.08759 -0.276827,2.163592 -0.469293,3.238301 -0.227434,1.603403 -0.280503,3.221659 -0.127222,4.836421 0.156321,1.83735 0.439291,3.648196 0.988272,5.414174 0.485069,2.200608 0.832012,4.426456 1.192439,6.65015 0,0 3.44389,-1.847332 3.44389,-1.847332 z" />
      <ellipse
         style="opacity:1;fill:#000000;fill-opacity:0;stroke:#1976d2;stroke-width:8.42758;stroke-miterlimit:4;stroke-dasharray:none;stroke-opacity:1"
         id="path905"
         cx="87.690498"
         cy="86.934517"
         rx="83.025261"
         ry="82.647278"
         clip-path="none" />
    </g>
  </g>
</svg>
