<?xml version="1.0" encoding="UTF-8" standalone="no"?>
<svg
   xmlns:osb="http://www.openswatchbook.org/uri/2009/osb"
   xmlns:dc="http://purl.org/dc/elements/1.1/"
   xmlns:cc="http://creativecommons.org/ns#"
   xmlns:rdf="http://www.w3.org/1999/02/22-rdf-syntax-ns#"
   xmlns:svg="http://www.w3.org/2000/svg"
   xmlns="http://www.w3.org/2000/svg"
   xmlns:sodipodi="http://sodipodi.sourceforge.net/DTD/sodipodi-0.dtd"
   xmlns:inkscape="http://www.inkscape.org/namespaces/inkscape"
   width="210mm"
   height="297mm"
   viewBox="0 0 210 297"
   version="1.1"
   id="svg8"
   inkscape:version="1.0.1 (3bc2e813f5, 2020-09-07)"
   sodipodi:docname="portforlioappicon.svg">
  <defs
     id="defs2">
    <linearGradient
       id="linearGradient2827"
       osb:paint="solid">
      <stop
         style="stop-color:#1976d2;stop-opacity:1;"
         offset="0"
         id="stop2825" />
    </linearGradient>
    <inkscape:path-effect
       effect="bspline"
       id="path-effect30"
       is_visible="true"
       lpeversion="1"
       weight="33.333333"
       steps="2"
       helper_size="0"
       apply_no_weight="true"
       apply_with_weight="true"
       only_selected="false" />
    <inkscape:path-effect
       effect="bspline"
       id="path-effect14"
       is_visible="true"
       lpeversion="1"
       weight="33.333333"
       steps="2"
       helper_size="0"
       apply_no_weight="true"
       apply_with_weight="true"
       only_selected="false" />
  </defs>
  <sodipodi:namedview
     id="base"
     pagecolor="#ffffff"
     bordercolor="#666666"
     borderopacity="1.0"
     inkscape:pageopacity="0.0"
     inkscape:pageshadow="2"
     inkscape:zoom="0.7"
     inkscape:cx="20.104431"
     inkscape:cy="569.2021"
     inkscape:document-units="mm"
     inkscape:current-layer="layer1"
     inkscape:document-rotation="0"
     showgrid="false"
     inkscape:window-width="1920"
     inkscape:window-height="1017"
     inkscape:window-x="-8"
     inkscape:window-y="-8"
     inkscape:window-maximized="1" />
  <metadata
     id="metadata5">
    <rdf:RDF>
      <cc:Work
         rdf:about="">
        <dc:format>image/svg+xml</dc:format>
        <dc:type
           rdf:resource="http://purl.org/dc/dcmitype/StillImage" />
        <dc:title></dc:title>
      </cc:Work>
    </rdf:RDF>
  </metadata>
  <g
     inkscape:label="Layer 1"
     inkscape:groupmode="layer"
     id="layer1">
    <rect
       style="fill:#000000;stroke-width:0.264583"
       id="rect10"
       width="61.232143"
       height="71.059525"
       x="68.035713"
       y="92.98214" />
    <path
       style="fill:none;stroke:#000000;stroke-width:0.264583px;stroke-linecap:butt;stroke-linejoin:miter;stroke-opacity:1"
       d="m 130.02381,110.36905 c 9.07443,1.5124 18.14586,3.02431 23.31026,7.81325 5.16441,4.78894 6.42433,12.85243 6.42388,17.89098 -4.6e-4,5.03854 -1.26038,7.05442 -1.89012,8.44129 -0.62974,1.38688 -0.62974,2.14283 -0.8804,2.51948 -0.25066,0.37666 -0.75463,0.37666 -1.13419,0.75543 -0.37956,0.37877 -0.63154,1.13472 -3.78015,2.26762 -3.14861,1.13291 -9.19623,2.64481 -13.47957,3.401 -4.28334,0.75618 -6.80318,0.75618 -8.06442,2.3954 -1.26124,1.63922 -1.26125,4.91501 -1.26125,6.55158 0,1.63658 0,1.63658 4.28474,0.75443 4.28474,-0.88215 12.8522,-2.64604 18.14359,-3.90602 5.29138,-1.25999 7.30725,-2.01594 8.44032,-3.40044 1.13306,-1.3845 1.38504,-3.40038 2.14087,-5.66884 0.75583,-2.26847 2.01575,-4.78831 2.64598,-6.67739 0.63022,-1.88909 0.63022,-3.14902 0.88209,-6.42495 0.25187,-3.27592 0.75584,-8.56759 -1.76247,-13.60724 -2.51832,-5.03965 -8.06197,-9.82735 -12.47152,-12.7259 -4.40956,-2.89855 -7.68535,-3.90649 -11.08724,-4.66272 -3.40188,-0.75622 -6.92966,-1.26019 -8.82093,-3.40086 -1.89127,-2.14068 -2.14326,-5.920438 -2.39543,-9.70301"
       id="path12"
       inkscape:path-effect="#path-effect14"
       inkscape:original-d="m 130.02381,110.36905 c 9.07407,1.51455 18.1455,3.02645 27.21428,4.53571 1.26257,8.06614 2.52249,16.12963 3.77977,24.19048 -1.25728,2.01851 -2.5172,4.03439 -3.77977,6.04762 0.003,0.75859 0.003,1.51454 0,2.26785 -0.50132,0.003 -1.00529,0.003 -1.5119,0 -0.24934,0.7586 -0.50132,1.51455 -0.75595,2.26786 -6.04498,1.51455 -12.0926,3.02646 -18.14286,4.53571 -2.5172,0.003 -5.03704,0.003 -7.55952,0 0.003,3.27844 0.003,6.55423 -1e-5,9.82737 0.003,0.003 0.003,0.003 0,1e-5 8.57011,-1.76124 17.13757,-3.52513 25.70239,-5.29166 2.01852,-0.75331 4.03439,-1.50926 6.04762,-2.26786 0.25463,-2.01322 0.50661,-4.0291 0.75595,-6.04762 1.26257,-2.51719 2.52249,-5.03703 3.77976,-7.55952 0.003,-1.25727 0.003,-2.5172 0,-3.77976 0.50662,-5.28902 1.01058,-10.58069 1.51191,-15.875 -5.54101,-4.78505 -11.08466,-9.57275 -16.63096,-14.3631 -3.27314,-1.00529 -6.54894,-2.01322 -9.82738,-3.02381 -3.52513,-0.50132 -7.05291,-1.00529 -10.58333,-1.5119 -0.24934,-3.77712 -0.50133,-7.556882 -0.75596,-11.33929" />
    <path
       style="fill:none;stroke-width:2.85714"
       d="m 490.79553,605.60223 c 2.17173,-16.19149 5.43921,-18.90667 27.18602,-22.59077 26.97548,-4.56988 60.80824,-13.98541 68.68643,-19.11518 11.33007,-7.37739 17.48471,-25.39579 17.55499,-51.3942 0.14426,-53.36606 -22.96236,-79.70643 -79.93726,-91.12439 C 486.51757,413.80883 490,416.11761 490,398.64686 v -15.52998 l 6.42857,6.40445 c 3.96534,3.95046 16.11053,8.9572 31.69664,13.06666 40.72024,10.73636 79.47386,40.14885 91.81418,69.68339 7.33707,17.56008 5.83899,58.03384 -3.00808,81.26999 -14.11705,37.0773 -14.02069,36.93771 -28.88914,41.84944 -11.64534,3.847 -91.46929,21.75205 -96.97454,21.75205 -1.00101,0 -1.12346,-5.19328 -0.2721,-11.54063 z"
       id="path16"
       transform="scale(0.26458333)" />
    <path
       style="fill:none;stroke-width:2.85714"
       d="m 490.79553,605.60223 c 2.17173,-16.19149 5.43921,-18.90667 27.18602,-22.59077 26.97548,-4.56988 60.80824,-13.98541 68.68643,-19.11518 11.33007,-7.37739 17.48471,-25.39579 17.55499,-51.3942 0.14426,-53.36606 -22.96236,-79.70643 -79.93726,-91.12439 C 486.51757,413.80883 490,416.11761 490,398.64686 v -15.52998 l 6.42857,6.40445 c 3.96534,3.95046 16.11053,8.9572 31.69664,13.06666 40.72024,10.73636 79.47386,40.14885 91.81418,69.68339 7.33707,17.56008 5.83899,58.03384 -3.00808,81.26999 -14.11705,37.0773 -14.02069,36.93771 -28.88914,41.84944 -11.64534,3.847 -91.46929,21.75205 -96.97454,21.75205 -1.00101,0 -1.12346,-5.19328 -0.2721,-11.54063 z"
       id="path18"
       transform="scale(0.26458333)" />
    <path
       style="fill:none;stroke-width:2.85714"
       d="m 490.79553,605.60223 c 2.17173,-16.19149 5.43921,-18.90667 27.18602,-22.59077 26.97548,-4.56988 60.80824,-13.98541 68.68643,-19.11518 11.33007,-7.37739 17.48471,-25.39579 17.55499,-51.3942 0.14426,-53.36606 -22.96236,-79.70643 -79.93726,-91.12439 C 486.51757,413.80883 490,416.11761 490,398.64686 v -15.52998 l 6.42857,6.40445 c 3.96534,3.95046 16.11053,8.9572 31.69664,13.06666 40.72024,10.73636 79.47386,40.14885 91.81418,69.68339 7.33707,17.56008 5.83899,58.03384 -3.00808,81.26999 -14.11705,37.0773 -14.02069,36.93771 -28.88914,41.84944 -11.64534,3.847 -91.46929,21.75205 -96.97454,21.75205 -1.00101,0 -1.12346,-5.19328 -0.2721,-11.54063 z"
       id="path20"
       transform="scale(0.26458333)" />
    <path
       style="fill:none;stroke-width:2.85714"
       d="m 490.79553,605.60223 c 2.17173,-16.19149 5.43921,-18.90667 27.18602,-22.59077 26.97548,-4.56988 60.80824,-13.98541 68.68643,-19.11518 11.33007,-7.37739 17.48471,-25.39579 17.55499,-51.3942 0.14426,-53.36606 -22.96236,-79.70643 -79.93726,-91.12439 C 486.51757,413.80883 490,416.11761 490,398.64686 v -15.52998 l 6.42857,6.40445 c 3.96534,3.95046 16.11053,8.9572 31.69664,13.06666 40.72024,10.73636 79.47386,40.14885 91.81418,69.68339 7.33707,17.56008 5.83899,58.03384 -3.00808,81.26999 -14.11705,37.0773 -14.02069,36.93771 -28.88914,41.84944 -11.64534,3.847 -91.46929,21.75205 -96.97454,21.75205 -1.00101,0 -1.12346,-5.19328 -0.2721,-11.54063 z"
       id="path22"
       transform="scale(0.26458333)" />
    <path
       style="fill:none;stroke-width:2.85714"
       d="m 490.79553,605.60223 c 2.17173,-16.19149 5.43921,-18.90667 27.18602,-22.59077 26.97548,-4.56988 60.80824,-13.98541 68.68643,-19.11518 11.33007,-7.37739 17.48471,-25.39579 17.55499,-51.3942 0.14426,-53.36606 -22.96236,-79.70643 -79.93726,-91.12439 C 486.51757,413.80883 490,416.11761 490,398.64686 v -15.52998 l 6.42857,6.40445 c 3.96534,3.95046 16.11053,8.9572 31.69664,13.06666 40.72024,10.73636 79.47386,40.14885 91.81418,69.68339 7.33707,17.56008 5.83899,58.03384 -3.00808,81.26999 -14.11705,37.0773 -14.02069,36.93771 -28.88914,41.84944 -11.64534,3.847 -91.46929,21.75205 -96.97454,21.75205 -1.00101,0 -1.12346,-5.19328 -0.2721,-11.54063 z"
       id="path24"
       transform="scale(0.26458333)" />
    <path
       style="fill:none;stroke-width:2.85714"
       d="m 490.79553,605.60223 c 2.17173,-16.19149 5.43921,-18.90667 27.18602,-22.59077 26.97548,-4.56988 60.80824,-13.98541 68.68643,-19.11518 11.33007,-7.37739 17.48471,-25.39579 17.55499,-51.3942 0.14426,-53.36606 -22.96236,-79.70643 -79.93726,-91.12439 C 486.51757,413.80883 490,416.11761 490,398.64686 v -15.52998 l 6.42857,6.40445 c 3.96534,3.95046 16.11053,8.9572 31.69664,13.06666 40.72024,10.73636 79.47386,40.14885 91.81418,69.68339 7.33707,17.56008 5.83899,58.03384 -3.00808,81.26999 -14.11705,37.0773 -14.02069,36.93771 -28.88914,41.84944 -11.64534,3.847 -91.46929,21.75205 -96.97454,21.75205 -1.00101,0 -1.12346,-5.19328 -0.2721,-11.54063 z"
       id="path26"
       transform="scale(0.26458333)" />
    <path
       style="fill:none;stroke:#000000;stroke-width:0.264583px;stroke-linecap:butt;stroke-linejoin:miter;stroke-opacity:1"
       d="m 130.02381,110.36905 c 0,0 -1.6008,-0.12037 -1.6008,-0.12037"
       id="path28"
       inkscape:path-effect="#path-effect30"
       inkscape:original-d="m 130.02381,110.36905 -1.6008,-0.12037" />
    <path
       style="fill:none;stroke-width:0.252538"
       d="m 490.3232,618.058 c -1.03511,-0.44366 -1.13175,-1.23566 -0.98674,-8.08735 0.14654,-6.92389 0.52012,-10.23771 1.58009,-14.01587 1.98739,-7.08393 5.08525,-9.94842 12.82253,-11.85662 2.46765,-0.60858 5.22508,-1.09331 14.43013,-2.53665 20.65405,-3.23853 49.759,-10.64178 61.28022,-15.58748 4.13304,-1.77418 6.75108,-3.431 8.92538,-5.64839 1.08717,-1.10872 2.38975,-2.12913 3.38328,-2.65039 1.79188,-0.94012 2.3449,-1.64895 2.93978,-3.76807 0.99561,-3.54661 1.76134,-5.61422 3.48621,-9.41333 2.7561,-6.07043 3.89431,-9.37355 4.80576,-13.94645 1.69224,-8.4902 1.84683,-20.72715 0.40518,-32.07234 -2.38269,-18.75071 -8.46669,-34.64155 -17.5971,-45.96194 -12.9643,-16.07386 -33.46632,-25.05367 -74.32097,-32.55233 -6.98347,-1.28178 -19.08302,-3.30421 -21.27634,-3.55633 l -1.4521,-0.16691 V 395.9264 375.61526 h 1.07869 1.07869 l 0.70726,2.33597 c 2.28343,7.54187 6.17586,12.53051 12.36329,15.84515 4.63913,2.4852 9.64804,4.04386 20.74139,6.45426 9.25418,2.01078 14.38262,3.2913 18.70519,4.67051 12.6777,4.0451 25.12457,10.79965 38.47605,20.8798 19.02589,14.36423 32.96875,30.25616 39.05644,44.51611 4.27743,10.01954 6.24913,21.78439 5.84064,34.85026 -0.16279,5.20687 -1.44507,23.22531 -1.93972,27.25675 -0.75224,6.13076 -1.74573,9.2853 -6.6044,20.9705 -4.37836,10.53002 -5.3446,13.19323 -7.55138,20.81361 -2.10619,7.27299 -2.97072,9.64821 -4.39886,12.08537 -3.75598,6.40969 -9.90178,9.29439 -30.55389,14.3413 -11.58884,2.83206 -29.1897,6.69252 -55.81093,12.24124 -24.84247,5.17796 -28.23707,5.77196 -29.61377,5.18191 z"
       id="path32"
       transform="scale(0.26458333)" />
    <path
       style="fill:#000000;stroke-width:0.252538"
       d="m 490.3232,618.058 c -1.03511,-0.44366 -1.13175,-1.23566 -0.98674,-8.08735 0.14654,-6.92389 0.52012,-10.23771 1.58009,-14.01587 1.98739,-7.08393 5.08525,-9.94842 12.82253,-11.85662 2.46765,-0.60858 5.22508,-1.09331 14.43013,-2.53665 20.65405,-3.23853 49.759,-10.64178 61.28022,-15.58748 4.13304,-1.77418 6.75108,-3.431 8.92538,-5.64839 1.08717,-1.10872 2.38975,-2.12913 3.38328,-2.65039 1.79188,-0.94012 2.3449,-1.64895 2.93978,-3.76807 0.99561,-3.54661 1.76134,-5.61422 3.48621,-9.41333 2.7561,-6.07043 3.89431,-9.37355 4.80576,-13.94645 1.69224,-8.4902 1.84683,-20.72715 0.40518,-32.07234 -2.38269,-18.75071 -8.46669,-34.64155 -17.5971,-45.96194 -12.9643,-16.07386 -33.46632,-25.05367 -74.32097,-32.55233 -6.98347,-1.28178 -19.08302,-3.30421 -21.27634,-3.55633 l -1.4521,-0.16691 V 395.9264 375.61526 h 1.07869 1.07869 l 0.70726,2.33597 c 2.28343,7.54187 6.17586,12.53051 12.36329,15.84515 4.63913,2.4852 9.64804,4.04386 20.74139,6.45426 9.25418,2.01078 14.38262,3.2913 18.70519,4.67051 12.6777,4.0451 25.12457,10.79965 38.47605,20.8798 19.02589,14.36423 32.96875,30.25616 39.05644,44.51611 4.27743,10.01954 6.24913,21.78439 5.84064,34.85026 -0.16279,5.20687 -1.44507,23.22531 -1.93972,27.25675 -0.75224,6.13076 -1.74573,9.2853 -6.6044,20.9705 -4.37836,10.53002 -5.3446,13.19323 -7.55138,20.81361 -2.10619,7.27299 -2.97072,9.64821 -4.39886,12.08537 -3.75598,6.40969 -9.90178,9.29439 -30.55389,14.3413 -11.58884,2.83206 -29.1897,6.69252 -55.81093,12.24124 -24.84247,5.17796 -28.23707,5.77196 -29.61377,5.18191 z"
       id="path34"
       transform="scale(0.26458333)" />
    <path
       style="fill:#000000;stroke-width:0.126269"
       d=""
       id="path36"
       transform="scale(0.26458333)" />
    <path
       style="fill:#000000;stroke-width:0.126269"
       d="m 488.65791,368.09266 c 0.009,-4.08007 0.034,-7.30467 0.0544,-7.16577 0.0205,0.1389 0.1028,0.9628 0.18295,1.8309 0.32844,3.55718 1.01088,8.10216 1.6455,10.95881 0.20503,0.92291 0.37278,1.7042 0.37278,1.7362 0,0.032 -0.51139,0.0582 -1.13642,0.0582 h -1.13642 z"
       id="path38"
       transform="scale(0.26458333)" />
    <path
       style="fill:#000000;stroke-width:0.126269"
       d="m 598.51089,476.3828 c -2.0908,-6.4251 -5.40393,-13.38486 -8.94808,-18.79694 -2.47995,-3.78699 -4.93213,-6.80336 -8.11018,-9.97617 -12.3352,-12.31485 -30.98887,-20.06202 -63.95943,-26.56337 -8.25563,-1.6279 -22.92364,-4.13856 -28.12643,-4.81429 l -0.59978,-0.0779 v -20.25844 -20.25845 l 1.04172,0.002 1.04172,0.002 0.5464,1.79709 c 0.76112,2.50328 1.3166,3.95104 2.19141,5.71144 3.60179,7.24801 9.28692,11.38136 19.80122,14.39639 3.12934,0.89736 5.84138,1.5528 13.31845,3.21875 11.26136,2.50914 15.36087,3.63208 21.21614,5.81159 13.25621,4.93437 26.73209,13.09621 40.72177,24.66365 3.20548,2.65047 7.84653,6.80959 9.62844,8.62862 l 0.72647,0.7416 -0.032,18.54031 -0.032,18.5403 z"
       id="path40"
       transform="scale(0.26458333)" />
    <path
       style="fill:#000000;stroke-width:0.126269"
       d="m 598.57438,476.57483 c -1.08568,-3.3613 -2.81457,-7.592 -4.51656,-11.05234 -7.65221,-15.55782 -18.50688,-25.54282 -35.77971,-32.91304 -11.80533,-5.03727 -27.15165,-9.16407 -48.23478,-12.97087 -7.05357,-1.2736 -16.96458,-2.90423 -20.7397,-3.41223 l -0.53664,-0.0722 v -20.25844 -20.25845 h 1.06325 1.06326 l 0.0873,0.41037 c 0.26771,1.25849 1.69657,5.18229 2.47106,6.78579 3.03659,6.28698 7.44674,10.12923 15.00369,13.07165 3.44694,1.34213 7.30758,2.39387 15.72992,4.28525 11.27934,2.53298 14.69672,3.38299 18.81409,4.67971 13.32054,4.19512 26.42864,11.40472 40.59551,22.32794 5.03919,3.88542 11.90758,9.81698 14.74233,12.73151 l 0.66334,0.68201 -0.032,18.54262 -0.032,18.54263 z"
       id="path42"
       transform="scale(0.26458333)" />
    <path
       style="fill:#000000;stroke-width:0.126269"
       d="m 598.64025,476.76806 c -0.16307,-0.51498 -0.66441,-1.92408 -1.11407,-3.13135 -3.977,-10.67747 -9.19251,-19.13258 -16.01456,-25.96195 -12.79695,-12.81069 -32.67615,-20.79888 -68.31157,-27.45009 -8.1557,-1.52224 -19.09149,-3.35201 -23.89642,-3.99835 l -0.53664,-0.0722 v -20.25844 -20.25845 h 1.04792 1.04792 l 0.41432,1.42052 c 2.37097,8.12899 6.14364,13.16748 12.48574,16.67498 4.56569,2.52506 9.16327,3.9501 21.87467,6.78018 7.03836,1.56702 11.66439,2.68903 14.88102,3.60926 12.78192,3.65671 25.4429,10.13563 38.78333,19.84634 6.29884,4.58503 13.54442,10.61088 18.02741,14.99265 l 1.67942,1.6415 -0.036,18.55085 -0.036,18.55086 z"
       id="path44"
       transform="scale(0.26458333)" />
    <path
       style="fill:#000000;stroke-width:0.0111607"
       d=""
       id="path46"
       transform="scale(0.26458333)" />
    <path
       style="fill:#000000;stroke-width:0.0111607"
       d="m 498.93415,417.77278 c -0.40964,-0.07 -2.41873,-0.40158 -3.34821,-0.55252 -2.40782,-0.39101 -4.17639,-0.664 -5.05023,-0.77954 -0.16959,-0.0224 -1.7518,-0.2072 -1.77422,-0.2072 -0.003,0 -0.006,-1.44643 -0.006,-3.21429 v -3.21429 h 5.25669 5.2567 v 4.01228 c 0,2.20675 -0.004,4.01175 -0.008,4.01111 -0.005,-6.4e-4 -0.15151,-0.0256 -0.32645,-0.0555 z"
       id="path48"
       transform="scale(0.26458333)" />
    <path
       style="fill:#000000;stroke-width:0.0446429"
       d="m 488.62012,365.73544 c -0.003,-5.59746 0.003,-6.20508 0.0581,-5.64732 0.034,0.34375 0.049,0.68527 0.0334,0.75893 -0.0156,0.0737 -0.0418,2.61495 -0.0581,5.64732 l -0.0297,5.51339 z"
       id="path50"
       transform="scale(0.26458333)" />
    <path
       style="fill:#000000;stroke-width:0.0446429"
       d=""
       id="path52"
       transform="scale(0.26458333)" />
    <path
       style="fill:#000000;stroke-width:0.0446429"
       d=""
       id="path54"
       transform="scale(0.26458333)" />
    <path
       style="fill:#000000;stroke-width:0.00789182"
       d="m 493.66914,417.00609 c -1.18713,-0.19875 -2.1592,-0.36062 -2.16017,-0.3597 -9.7e-4,9.1e-4 -0.0151,0.0821 -0.0313,0.18036 -0.0163,0.0983 -0.0307,0.17757 -0.0321,0.1762 -10e-4,-10e-4 0.003,-0.0812 0.0107,-0.17739 0.007,-0.0962 0.0107,-0.1774 0.008,-0.18044 -0.004,-0.004 -2.4864,-0.19561 -2.87912,-0.22246 -0.003,-2.3e-4 -0.006,-1.68196 -0.006,-3.73718 v -3.73678 h 0.0829 0.0829 v 3.64533 3.64532 l 0.0296,0.005 c 0.0163,0.003 0.3723,0.0438 0.79116,0.0918 0.78718,0.0902 1.0165,0.11905 1.52706,0.19244 0.91404,0.13138 2.546,0.38599 4.31683,0.67347 l 0.42615,0.0692 0.002,0.0492 c 10e-4,0.0271 -4.8e-4,0.0488 -0.004,0.0483 -0.003,-4.9e-4 -0.97758,-0.16352 -2.16471,-0.36227 z"
       id="path56"
       transform="scale(0.26458333)" />
    <path
       style="fill:#000000;stroke-width:0.0446429"
       d="m 518.24196,421.23207 c -7.70111,-1.54319 -24.03695,-4.36049 -28.17143,-4.85848 -0.51464,-0.062 -1.02109,-0.12405 -1.12544,-0.13791 l -0.18973,-0.0252 v -18.6803 -18.6803 h 1.55636 1.55637 l 0.21363,0.61384 c 2.02995,5.83272 5.18247,10.06625 9.73167,13.06872 0.8283,0.54667 1.35435,0.85765 2.32143,1.37232 3.54148,1.88474 7.34135,3.21281 13.67188,4.77839 l 1.48437,0.3671 v 11.19446 c 0,6.15695 -0.0151,11.19214 -0.0335,11.18932 -0.0184,-0.003 -0.47545,-0.0937 -1.01563,-0.20195 z"
       id="path58"
       transform="scale(0.26458333)" />
    <path
       style="fill:#000000;stroke-width:0.0446429"
       d="m 518.10803,421.21053 c -6.47655,-1.32861 -23.63288,-4.29076 -27.90178,-4.81742 -0.58929,-0.0727 -1.15681,-0.14354 -1.26116,-0.15741 l -0.18973,-0.0252 v -18.6803 -18.6803 h 1.55891 1.55891 l 0.0762,0.23437 c 0.0419,0.12891 0.20642,0.58594 0.36557,1.01563 2.38396,6.43657 6.08822,10.75985 11.83347,13.81097 3.53288,1.87619 7.35567,3.20958 13.72524,4.78734 l 1.41741,0.3511 v 11.19494 c 0,8.92854 -0.0113,11.19404 -0.0558,11.19052 -0.0307,-0.002 -0.53795,-0.10333 -1.12724,-0.22421 z"
       id="path60"
       transform="scale(0.26458333)" />
    <path
       style="fill:#000000;stroke-width:0.0446429"
       d="m 488.55234,397.62219 0.002,-18.79464 0.0226,17.90178 c 0.0124,9.84599 0.0117,18.30358 -0.002,18.79465 -0.0133,0.49107 -0.0235,-7.56474 -0.0226,-17.90179 z"
       id="path62"
       transform="scale(0.26458333)" />
    <path
       style="fill:#000000;stroke-width:0.0446429"
       d="m 488.60652,399.99942 c -0.0163,-4.91685 -0.0297,-11.68694 -0.0297,-15.04464 -10e-6,-5.39683 0.008,-6.10491 0.067,-6.10491 0.0594,0 0.067,1.70139 0.067,15.04464 0,8.27456 -0.0168,15.04465 -0.0372,15.04465 -0.0205,0 -0.0506,-4.02288 -0.067,-8.93974 z"
       id="path64"
       transform="scale(0.26458333)" />
    <path
       style="fill:#000000;stroke-width:0.0446429"
       d=""
       id="path66"
       transform="scale(0.26458333)" />
    <path
       style="fill:#000000;stroke-width:0.0446429"
       d=""
       id="path68"
       transform="scale(0.26458333)" />
    <path
       style="fill:#000000;stroke-width:0.00558036"
       d="m 488.58927,406.93652 c 0,-1.10414 -0.002,-2.8195 -0.004,-3.81189 l -0.004,-1.80436 0.0135,0.002 0.0135,0.002 0.004,0.89843 c 0.0102,2.47875 0.0292,5.15017 0.0437,6.14119 0.006,0.41062 0.0108,0.57477 0.0167,0.57477 0.008,0 0.0114,-0.25918 0.0169,-1.1356 0.007,-1.1437 0.0166,-4.24139 0.0166,-5.49805 l 3e-5,-0.98353 h 0.0195 0.0195 v 3.81138 3.81138 h -0.0781 -0.0781 z"
       id="path70"
       transform="scale(0.26458333)" />
    <path
       style="fill:#000000;stroke-width:0.264583"
       id="path72"
       d="m 87.384394,88.768112 c 0.275643,-1.057923 0.32022,-2.139072 0.25953,-3.225041 -0.06865,-1.276384 -0.320355,-2.523119 -0.815607,-3.700322 -0.490273,-1.085088 -1.121844,-2.096939 -1.674797,-3.149841 -0.658357,-1.125418 -1.220454,-2.301012 -1.774679,-3.479564 -0.534411,-1.028552 -0.99154,-2.094193 -1.445316,-3.160223 -0.328851,-0.826437 -0.816306,-1.581068 -1.127191,-2.414752 -0.215908,-0.578987 -0.269981,-0.868211 -0.417687,-1.463521 -0.255368,-1.136325 -0.325676,-2.299383 -0.347919,-3.460102 -0.0019,-1.069705 0.227652,-1.861523 0.643297,-2.828192 0.484751,-1.050226 1.032574,-2.080535 1.63096,-3.072397 0.709322,-1.235194 1.472722,-2.437278 2.215169,-3.652332 0.478742,-0.719005 1.056063,-1.390576 1.73469,-1.930778 0.339691,-0.270402 0.779886,-0.523188 1.148252,-0.748194 -0.886198,0.51958 -1.784535,1.018989 -2.658591,1.558747 -0.213379,0.131768 0.449384,-0.222784 0.674428,-0.333459 0.693653,-0.341138 0.651634,-0.310915 1.319816,-0.663012 1.584626,-0.835017 2.463686,-1.429014 4.412472,-2.585614 1.093406,-0.795634 1.607804,-1.563203 2.101342,-2.804123 0.34554,-0.903047 0.412617,-1.860285 0.430127,-2.816489 0.01691,-0.885661 -0.136392,-1.763448 -0.203104,-2.645447 -0.0035,-0.835825 -0.04371,-1.110705 -0.508815,-1.800987 0,0 -3.394636,1.994188 -3.394636,1.994188 v 0 c 0.422632,0.610031 0.403209,0.861663 0.433223,1.609696 0.07191,0.867412 0.211241,1.733148 0.186807,2.604947 -0.04208,0.91141 -0.115898,1.823032 -0.468905,2.676927 -0.508199,1.141251 -1.142439,1.892403 -2.181604,2.595827 0.931868,-0.523713 1.865043,-1.045107 2.795604,-1.571141 0.19894,-0.112458 -0.39996,0.221211 -0.600716,0.330399 -0.211325,0.114938 -0.421796,0.231547 -0.635513,0.341974 -1.804686,0.932489 -3.66658,1.529262 -5.294413,2.904564 -1.133171,0.751694 -2.122297,1.650767 -2.814603,2.839101 -0.752404,1.212868 -1.493949,2.432505 -2.219971,3.661328 -0.594883,1.018907 -1.178874,2.05455 -1.644914,3.138908 -0.384241,0.954135 -0.58783,1.941555 -0.569238,2.975631 0.04537,1.181092 0.148124,2.359162 0.438999,3.509301 0.139206,0.526052 0.253559,1.003221 0.438952,1.516864 0.302017,0.836755 0.765284,1.603748 1.116666,2.419064 0.442444,1.079662 0.873403,2.16661 1.435857,3.191092 0.587399,1.165511 1.148344,2.344489 1.78739,3.483637 0.537035,1.048369 1.173739,2.04448 1.652283,3.122242 0.450747,1.138489 0.730901,2.333863 0.787453,3.561006 0.0149,1.067199 -0.07263,2.141942 -0.433512,3.155344 0,0 3.588414,-1.685256 3.588414,-1.685256 z" />
    <path
       style="fill:#000000;stroke-width:0.264583"
       id="path74"
       d="m 115.91938,88.07384 c -1.19794,-1.097841 -2.23976,-2.361065 -3.27365,-3.6117 -1.11158,-1.400048 -2.20059,-2.828613 -3.09436,-4.379434 -0.41871,-0.805714 -0.91877,-1.568063 -1.21784,-2.431237 -0.17393,-0.501981 -0.19822,-0.699561 -0.30637,-1.216475 -0.21982,-1.361599 -0.24998,-2.740043 -0.10124,-4.108818 0.21884,-1.639845 0.76551,-2.661314 1.7673,-3.94739 1.1878,-1.378646 2.63072,-2.511967 3.98013,-3.727233 1.30568,-1.165643 2.50923,-2.468128 3.44135,-3.957018 0.19966,-0.318924 0.36816,-0.656328 0.55224,-0.984491 1.14774,-2.174671 1.65667,-4.552066 1.94301,-6.971093 0.0936,-1.30674 0.27183,-2.622656 0.20843,-3.935923 -0.0312,-0.647298 -0.0947,-0.921473 -0.1989,-1.566101 -0.36626,-1.81061 -1.22769,-3.451063 -2.06762,-5.076957 -0.11991,-0.196826 -0.23983,-0.393653 -0.35975,-0.590479 0,0 -3.33469,1.942799 -3.33469,1.942799 v 0 c 0.12148,0.18575 0.24297,0.371501 0.36446,0.557252 0.87886,1.564473 1.70524,3.167459 2.00947,4.958048 0.24921,1.786628 0.23558,3.576288 0.0219,5.370023 -0.30708,2.3847 -0.8278,4.72631 -2.02354,6.84294 -0.18813,0.317116 -0.36194,0.643181 -0.56439,0.951349 -0.96583,1.470173 -2.20057,2.737768 -3.51488,3.896474 -1.3666,1.220173 -2.81844,2.375357 -3.97447,3.805168 -0.96787,1.326714 -1.52102,2.496013 -1.70211,4.147198 -0.13692,1.407729 -0.0688,2.825906 0.14502,4.224235 0.11848,0.520967 0.15792,0.767532 0.34092,1.273802 0.31622,0.874765 0.82453,1.652944 1.2717,2.462331 0.91911,1.562061 2.04751,2.986524 3.16765,4.407884 1.03299,1.256872 2.07053,2.511394 3.14446,3.733509 0,0 3.37575,-2.068663 3.37575,-2.068663 z" />
    <path
       style="fill:#000000;stroke-width:0.264583"
       id="path76"
       d="m 102.92118,87.629504 c -0.56853,-2.165956 -0.87457,-4.38754 -1.32218,-6.579719 -0.49197,-1.768964 -0.77933,-3.568134 -0.9188,-5.39578 -0.12793,-1.595422 -0.0694,-3.192153 0.19317,-4.769676 0.22122,-1.089837 0.43857,-2.180158 0.51042,-3.291138 0.0812,-0.715063 -0.0192,-1.443144 0.0404,-2.157767 0.0492,-0.589622 0.13154,-0.755156 0.3016,-1.329928 0.43014,-1.419694 1.53176,-2.424015 2.52825,-3.460862 0.98583,-1.134213 2.23874,-2.03383 3.11628,-3.26387 0.15498,-0.217237 0.27981,-0.454473 0.41972,-0.68171 0.78892,-1.502974 0.98149,-3.182847 1.01773,-4.854067 -0.023,-1.08517 0.026,-2.191327 -0.29421,-3.243186 -0.17709,-0.581816 -0.52991,-1.346509 -0.77158,-1.900737 -0.7181,-1.467774 -1.60921,-2.840577 -2.38518,-4.275709 -0.0929,-0.183817 -0.18587,-0.367631 -0.2788,-0.551447 0,0 -3.36221,1.91934 -3.36221,1.91934 v 0 c 0.0971,0.185976 0.19426,0.371954 0.29139,0.55793 0.7975,1.409017 1.71222,2.751754 2.4363,4.203305 0.28819,0.676738 0.51473,1.13832 0.70151,1.850242 0.27049,1.030965 0.22622,2.110383 0.25284,3.16488 -0.0624,1.622319 -0.28205,3.248601 -1.12008,4.672994 -0.14227,0.211301 -0.27253,0.43121 -0.42682,0.63391 -0.91245,1.198761 -2.13935,2.119344 -3.13661,3.241524 -1.03699,1.06839 -2.066367,2.159278 -2.462231,3.640336 -0.168469,0.644527 -0.234874,0.780309 -0.288494,1.436515 -0.05806,0.710491 0.01609,1.432801 -0.07046,2.142906 -0.09917,1.087591 -0.276828,2.163593 -0.469294,3.238301 -0.227433,1.603402 -0.280503,3.221659 -0.12722,4.836422 0.156319,1.837349 0.439291,3.648194 0.988272,5.414174 0.485068,2.200606 0.832011,4.426455 1.192437,6.650149 0,0 3.44389,-1.847332 3.44389,-1.847332 z" />
    <ellipse
       style="opacity:1;fill:#000000;fill-opacity:0;stroke:#1976d2;stroke-width:8.42757;stroke-miterlimit:4;stroke-dasharray:none;stroke-opacity:1"
       id="path905"
       cx="103.56548"
       cy="111.88094"
       rx="83.025261"
       ry="82.647285"
       clip-path="none" />
  </g>
</svg>
